<mxfile host="65bd71144e">
    <diagram id="v_crJxuHTBDqGF7QttWU" name="Page-1">
        <mxGraphModel dx="1253" dy="729" grid="1" gridSize="10" guides="1" tooltips="1" connect="1" arrows="1" fold="1" page="1" pageScale="1" pageWidth="1100" pageHeight="850" math="0" shadow="0">
            <root>
                <mxCell id="0"/>
                <mxCell id="1" parent="0"/>
                <mxCell id="WvAcBhJ2Lkr34zQpsieE-91" value="" style="rounded=1;whiteSpace=wrap;html=1;shadow=0;glass=0;sketch=0;strokeColor=none;fontSize=14;fontColor=#000000;fillColor=#FFFFFF;arcSize=4;" parent="1" vertex="1">
                    <mxGeometry x="60" y="70" width="1030" height="480" as="geometry"/>
                </mxCell>
                <mxCell id="2" value="" style="rounded=1;whiteSpace=wrap;html=1;fillColor=#F2F4FF;strokeColor=none;shadow=0;glass=0;arcSize=4;" parent="1" vertex="1">
                    <mxGeometry x="90" y="110" width="230" height="400" as="geometry"/>
                </mxCell>
                <mxCell id="WvAcBhJ2Lkr34zQpsieE-3" value="Stream Processor" style="text;html=1;strokeColor=none;fillColor=none;align=center;verticalAlign=middle;whiteSpace=wrap;rounded=0;shadow=0;glass=0;sketch=0;fontSize=16;fontStyle=4" parent="1" vertex="1">
                    <mxGeometry x="124.5" y="130" width="160" height="30" as="geometry"/>
                </mxCell>
                <mxCell id="WvAcBhJ2Lkr34zQpsieE-21" style="edgeStyle=orthogonalEdgeStyle;html=1;exitX=0.5;exitY=1;exitDx=0;exitDy=0;entryX=0.5;entryY=0;entryDx=0;entryDy=0;fontSize=12;fontColor=#FFA6DB;arcSize=0;strokeWidth=2;" parent="1" source="WvAcBhJ2Lkr34zQpsieE-4" target="WvAcBhJ2Lkr34zQpsieE-5" edge="1">
                    <mxGeometry relative="1" as="geometry"/>
                </mxCell>
                <mxCell id="WvAcBhJ2Lkr34zQpsieE-22" style="edgeStyle=orthogonalEdgeStyle;html=1;fontSize=12;fontColor=#FFA6DB;arcSize=0;strokeWidth=2;" parent="1" source="WvAcBhJ2Lkr34zQpsieE-4" target="WvAcBhJ2Lkr34zQpsieE-7" edge="1">
                    <mxGeometry relative="1" as="geometry"/>
                </mxCell>
                <mxCell id="WvAcBhJ2Lkr34zQpsieE-4" value="Data Source" style="rounded=0;whiteSpace=wrap;html=1;shadow=0;glass=0;sketch=0;strokeColor=default;fontSize=12;fillColor=#FFFFFF;" parent="1" vertex="1">
                    <mxGeometry x="157" y="180" width="95" height="30" as="geometry"/>
                </mxCell>
                <mxCell id="WvAcBhJ2Lkr34zQpsieE-5" value="Model Scoring Operator" style="rounded=0;whiteSpace=wrap;html=1;shadow=0;glass=0;sketch=0;strokeColor=default;fontSize=12;fillColor=#FFFFFF;" parent="1" vertex="1">
                    <mxGeometry x="102" y="250" width="100" height="40" as="geometry"/>
                </mxCell>
                <mxCell id="WvAcBhJ2Lkr34zQpsieE-7" value="Model Scoring Operator" style="rounded=0;whiteSpace=wrap;html=1;shadow=0;glass=0;sketch=0;strokeColor=default;fontSize=12;fillColor=#FFFFFF;" parent="1" vertex="1">
                    <mxGeometry x="208" y="250" width="100" height="40" as="geometry"/>
                </mxCell>
                <mxCell id="WvAcBhJ2Lkr34zQpsieE-10" value="Model 1 Replica" style="rounded=0;whiteSpace=wrap;html=1;shadow=0;glass=0;sketch=0;strokeColor=default;fontSize=12;fillColor=#FF5C4A;fontColor=#FFFFFF;" parent="1" vertex="1">
                    <mxGeometry x="102" y="290" width="100" height="30" as="geometry"/>
                </mxCell>
                <mxCell id="WvAcBhJ2Lkr34zQpsieE-14" value="Model 3 Replica" style="rounded=0;whiteSpace=wrap;html=1;shadow=0;glass=0;sketch=0;strokeColor=default;fontSize=12;fillColor=#8A9DFF;fontColor=#FFFFFF;" parent="1" vertex="1">
                    <mxGeometry x="150" y="320" width="52" height="30" as="geometry"/>
                </mxCell>
                <mxCell id="WvAcBhJ2Lkr34zQpsieE-31" style="edgeStyle=orthogonalEdgeStyle;html=1;strokeWidth=2;fontSize=8;fontColor=#000000;arcSize=0;" parent="1" source="WvAcBhJ2Lkr34zQpsieE-15" target="WvAcBhJ2Lkr34zQpsieE-20" edge="1">
                    <mxGeometry relative="1" as="geometry"/>
                </mxCell>
                <mxCell id="WvAcBhJ2Lkr34zQpsieE-15" value="Model 4 Replica" style="rounded=0;whiteSpace=wrap;html=1;shadow=0;glass=0;sketch=0;strokeColor=default;fontSize=12;fillColor=#6933FF;fontColor=#FFFFFF;" parent="1" vertex="1">
                    <mxGeometry x="102" y="350" width="100" height="30" as="geometry"/>
                </mxCell>
                <mxCell id="WvAcBhJ2Lkr34zQpsieE-20" value="Data Sink" style="rounded=0;whiteSpace=wrap;html=1;shadow=0;glass=0;sketch=0;strokeColor=default;fontSize=12;fillColor=#FFFFFF;" parent="1" vertex="1">
                    <mxGeometry x="157" y="470" width="95" height="30" as="geometry"/>
                </mxCell>
                <mxCell id="WvAcBhJ2Lkr34zQpsieE-24" value="Model 2 Replica" style="rounded=0;whiteSpace=wrap;html=1;shadow=0;glass=0;sketch=0;strokeColor=default;fontSize=12;fillColor=#FF9E66;fontColor=#FFFFFF;" parent="1" vertex="1">
                    <mxGeometry x="102" y="320" width="48" height="30" as="geometry"/>
                </mxCell>
                <mxCell id="WvAcBhJ2Lkr34zQpsieE-25" value="Model 3 Replica" style="rounded=0;whiteSpace=wrap;html=1;shadow=0;glass=0;sketch=0;strokeColor=default;fontSize=12;fillColor=#8A9DFF;fontColor=#FFFFFF;" parent="1" vertex="1">
                    <mxGeometry x="260" y="320" width="48" height="30" as="geometry"/>
                </mxCell>
                <mxCell id="WvAcBhJ2Lkr34zQpsieE-32" style="edgeStyle=orthogonalEdgeStyle;html=1;strokeWidth=2;fontSize=8;fontColor=#000000;arcSize=0;" parent="1" source="WvAcBhJ2Lkr34zQpsieE-26" target="WvAcBhJ2Lkr34zQpsieE-20" edge="1">
                    <mxGeometry relative="1" as="geometry"/>
                </mxCell>
                <mxCell id="WvAcBhJ2Lkr34zQpsieE-26" value="Model 4 Replica" style="rounded=0;whiteSpace=wrap;html=1;shadow=0;glass=0;sketch=0;strokeColor=default;fontSize=12;fillColor=#6933FF;fontColor=#FFFFFF;" parent="1" vertex="1">
                    <mxGeometry x="208" y="350" width="100" height="30" as="geometry"/>
                </mxCell>
                <mxCell id="WvAcBhJ2Lkr34zQpsieE-27" value="Model 1 Replica" style="rounded=0;whiteSpace=wrap;html=1;shadow=0;glass=0;sketch=0;strokeColor=default;fontSize=12;fillColor=#FF5C4A;fontColor=#FFFFFF;" parent="1" vertex="1">
                    <mxGeometry x="208" y="290" width="100" height="30" as="geometry"/>
                </mxCell>
                <mxCell id="WvAcBhJ2Lkr34zQpsieE-28" value="Model 2 Replica" style="rounded=0;whiteSpace=wrap;html=1;shadow=0;glass=0;sketch=0;strokeColor=default;fontSize=12;fillColor=#FF9E66;fontColor=#FFFFFF;" parent="1" vertex="1">
                    <mxGeometry x="208" y="320" width="52" height="30" as="geometry"/>
                </mxCell>
                <mxCell id="WvAcBhJ2Lkr34zQpsieE-29" value="Input batches" style="text;html=1;strokeColor=none;fillColor=none;align=center;verticalAlign=middle;whiteSpace=wrap;rounded=0;shadow=0;glass=0;sketch=0;fontSize=8;fontColor=#000000;" parent="1" vertex="1">
                    <mxGeometry x="208" y="210" width="58" height="20" as="geometry"/>
                </mxCell>
                <mxCell id="WvAcBhJ2Lkr34zQpsieE-33" value="" style="endArrow=none;html=1;strokeWidth=2;fontSize=8;fontColor=#000000;dashed=1;" parent="1" edge="1">
                    <mxGeometry width="50" height="50" relative="1" as="geometry">
                        <mxPoint x="330" y="515" as="sourcePoint"/>
                        <mxPoint x="330" y="105" as="targetPoint"/>
                    </mxGeometry>
                </mxCell>
                <mxCell id="WvAcBhJ2Lkr34zQpsieE-34" value="" style="rounded=1;whiteSpace=wrap;html=1;fillColor=#F2F4FF;strokeColor=none;shadow=0;glass=0;arcSize=4;" parent="1" vertex="1">
                    <mxGeometry x="340" y="110" width="180" height="400" as="geometry"/>
                </mxCell>
                <mxCell id="WvAcBhJ2Lkr34zQpsieE-35" value="Stream Processor" style="text;html=1;strokeColor=none;fillColor=none;align=center;verticalAlign=middle;whiteSpace=wrap;rounded=0;shadow=0;glass=0;sketch=0;fontSize=16;fontStyle=4" parent="1" vertex="1">
                    <mxGeometry x="350" y="130" width="160" height="30" as="geometry"/>
                </mxCell>
                <mxCell id="WvAcBhJ2Lkr34zQpsieE-36" style="edgeStyle=orthogonalEdgeStyle;html=1;exitX=0.5;exitY=1;exitDx=0;exitDy=0;entryX=0.5;entryY=0;entryDx=0;entryDy=0;fontSize=12;fontColor=#FFA6DB;arcSize=0;strokeWidth=2;" parent="1" source="WvAcBhJ2Lkr34zQpsieE-38" target="WvAcBhJ2Lkr34zQpsieE-39" edge="1">
                    <mxGeometry relative="1" as="geometry"/>
                </mxCell>
                <mxCell id="WvAcBhJ2Lkr34zQpsieE-38" value="Data Source" style="rounded=0;whiteSpace=wrap;html=1;shadow=0;glass=0;sketch=0;strokeColor=default;fontSize=14;fillColor=#FFFFFF;" parent="1" vertex="1">
                    <mxGeometry x="377" y="170" width="95" height="50" as="geometry"/>
                </mxCell>
                <mxCell id="WvAcBhJ2Lkr34zQpsieE-39" value="Model Scoring Operator" style="rounded=0;whiteSpace=wrap;html=1;shadow=0;glass=0;sketch=0;strokeColor=default;fontSize=14;fillColor=#FFFFFF;" parent="1" vertex="1">
                    <mxGeometry x="374.5" y="280" width="100" height="70" as="geometry"/>
                </mxCell>
                <mxCell id="WvAcBhJ2Lkr34zQpsieE-44" style="edgeStyle=orthogonalEdgeStyle;html=1;strokeWidth=2;fontSize=8;fontColor=#000000;arcSize=0;" parent="1" source="WvAcBhJ2Lkr34zQpsieE-39" target="WvAcBhJ2Lkr34zQpsieE-46" edge="1">
                    <mxGeometry relative="1" as="geometry">
                        <mxPoint x="372" y="405.0000000000001" as="sourcePoint"/>
                    </mxGeometry>
                </mxCell>
                <mxCell id="WvAcBhJ2Lkr34zQpsieE-46" value="Data Sink" style="rounded=0;whiteSpace=wrap;html=1;shadow=0;glass=0;sketch=0;strokeColor=default;fontSize=14;fillColor=#FFFFFF;" parent="1" vertex="1">
                    <mxGeometry x="377" y="450" width="95" height="45" as="geometry"/>
                </mxCell>
                <mxCell id="WvAcBhJ2Lkr34zQpsieE-54" value="Input batches" style="text;html=1;strokeColor=none;fillColor=none;align=center;verticalAlign=middle;whiteSpace=wrap;rounded=0;shadow=0;glass=0;sketch=0;fontSize=14;fontColor=#000000;" parent="1" vertex="1">
                    <mxGeometry x="428" y="225" width="82" height="40" as="geometry"/>
                </mxCell>
                <mxCell id="WvAcBhJ2Lkr34zQpsieE-55" value="Scoring output" style="text;html=1;strokeColor=none;fillColor=none;align=center;verticalAlign=middle;whiteSpace=wrap;rounded=0;shadow=0;glass=0;sketch=0;fontSize=14;fontColor=#000000;" parent="1" vertex="1">
                    <mxGeometry x="428" y="380" width="82" height="40" as="geometry"/>
                </mxCell>
                <mxCell id="WvAcBhJ2Lkr34zQpsieE-56" value="Scoring output" style="text;html=1;strokeColor=none;fillColor=none;align=center;verticalAlign=middle;whiteSpace=wrap;rounded=0;shadow=0;glass=0;sketch=0;fontSize=8;fontColor=#000000;" parent="1" vertex="1">
                    <mxGeometry x="218" y="450" width="58" height="20" as="geometry"/>
                </mxCell>
                <mxCell id="WvAcBhJ2Lkr34zQpsieE-57" value="" style="rounded=1;whiteSpace=wrap;html=1;shadow=0;glass=0;sketch=0;strokeColor=#000000;fontSize=14;fontColor=#000000;fillColor=#FFFFFF;arcSize=4;" parent="1" vertex="1">
                    <mxGeometry x="590" y="100" width="470" height="420" as="geometry"/>
                </mxCell>
                <mxCell id="WvAcBhJ2Lkr34zQpsieE-65" value="Model Serving Framework" style="text;html=1;strokeColor=none;fillColor=none;align=center;verticalAlign=middle;whiteSpace=wrap;rounded=0;shadow=0;glass=0;sketch=0;fontSize=16;fontStyle=4" parent="1" vertex="1">
                    <mxGeometry x="742.5" y="105" width="165" height="55" as="geometry"/>
                </mxCell>
                <mxCell id="WvAcBhJ2Lkr34zQpsieE-86" value="" style="endArrow=classic;html=1;strokeWidth=2;fontSize=12;fontColor=#000000;" parent="1" edge="1">
                    <mxGeometry width="50" height="50" relative="1" as="geometry">
                        <mxPoint x="520" y="300" as="sourcePoint"/>
                        <mxPoint x="590" y="300" as="targetPoint"/>
                    </mxGeometry>
                </mxCell>
                <mxCell id="WvAcBhJ2Lkr34zQpsieE-87" value="RPC&lt;br&gt;Requests" style="edgeLabel;html=1;align=center;verticalAlign=middle;resizable=0;points=[];fontSize=10;fontColor=#000000;" parent="WvAcBhJ2Lkr34zQpsieE-86" vertex="1" connectable="0">
                    <mxGeometry x="-0.3311" y="1" relative="1" as="geometry">
                        <mxPoint x="11" y="-14" as="offset"/>
                    </mxGeometry>
                </mxCell>
                <mxCell id="WvAcBhJ2Lkr34zQpsieE-88" value="" style="endArrow=classic;html=1;strokeWidth=2;fontSize=12;fontColor=#000000;dashed=1;" parent="1" source="WvAcBhJ2Lkr34zQpsieE-57" target="WvAcBhJ2Lkr34zQpsieE-34" edge="1">
                    <mxGeometry width="50" height="50" relative="1" as="geometry">
                        <mxPoint x="590" y="280" as="sourcePoint"/>
                        <mxPoint x="600" y="317.265" as="targetPoint"/>
                    </mxGeometry>
                </mxCell>
                <mxCell id="13" value="" style="group" parent="1" vertex="1" connectable="0">
                    <mxGeometry x="600" y="170" width="220" height="312.5" as="geometry"/>
                </mxCell>
                <mxCell id="WvAcBhJ2Lkr34zQpsieE-66" value="Worker Process" style="rounded=1;whiteSpace=wrap;html=1;shadow=0;glass=0;sketch=0;strokeColor=#000000;fontSize=12;fontColor=#000000;fillColor=#FFFFFF;arcSize=0;" parent="13" vertex="1">
                    <mxGeometry x="60" width="100" height="30" as="geometry"/>
                </mxCell>
                <mxCell id="WvAcBhJ2Lkr34zQpsieE-67" value="Model 1 Replica" style="rounded=0;whiteSpace=wrap;html=1;shadow=0;glass=0;sketch=0;strokeColor=default;fontSize=12;fillColor=#FF5C4A;fontColor=#FFFFFF;" parent="13" vertex="1">
                    <mxGeometry x="60" y="30" width="100" height="30" as="geometry"/>
                </mxCell>
                <mxCell id="WvAcBhJ2Lkr34zQpsieE-70" value="Worker Process" style="rounded=1;whiteSpace=wrap;html=1;shadow=0;glass=0;sketch=0;strokeColor=#000000;fontSize=12;fontColor=#000000;fillColor=#FFFFFF;arcSize=0;" parent="13" vertex="1">
                    <mxGeometry y="118.89999999999998" width="100" height="30" as="geometry"/>
                </mxCell>
                <mxCell id="WvAcBhJ2Lkr34zQpsieE-74" value="Worker Process" style="rounded=1;whiteSpace=wrap;html=1;shadow=0;glass=0;sketch=0;strokeColor=#000000;fontSize=12;fontColor=#000000;fillColor=#FFFFFF;arcSize=0;" parent="13" vertex="1">
                    <mxGeometry x="120" y="118.89999999999998" width="100" height="30" as="geometry"/>
                </mxCell>
                <mxCell id="WvAcBhJ2Lkr34zQpsieE-75" value="Worker Process" style="rounded=1;whiteSpace=wrap;html=1;shadow=0;glass=0;sketch=0;strokeColor=#000000;fontSize=12;fontColor=#000000;fillColor=#FFFFFF;arcSize=0;" parent="13" vertex="1">
                    <mxGeometry x="60" y="252.5" width="100" height="30" as="geometry"/>
                </mxCell>
                <mxCell id="WvAcBhJ2Lkr34zQpsieE-80" value="Model 2 Replica" style="rounded=0;whiteSpace=wrap;html=1;shadow=0;glass=0;sketch=0;strokeColor=default;fontSize=12;fillColor=#FF9E66;fontColor=#FFFFFF;" parent="13" vertex="1">
                    <mxGeometry y="148.89999999999998" width="100" height="30" as="geometry"/>
                </mxCell>
                <mxCell id="WvAcBhJ2Lkr34zQpsieE-82" value="Model 3 Replica" style="rounded=0;whiteSpace=wrap;html=1;shadow=0;glass=0;sketch=0;strokeColor=default;fontSize=12;fillColor=#8A9DFF;fontColor=#FFFFFF;" parent="13" vertex="1">
                    <mxGeometry x="120" y="148.89999999999998" width="100" height="30" as="geometry"/>
                </mxCell>
                <mxCell id="WvAcBhJ2Lkr34zQpsieE-83" value="Model 4 Replica" style="rounded=0;whiteSpace=wrap;html=1;shadow=0;glass=0;sketch=0;strokeColor=default;fontSize=12;fillColor=#6933FF;fontColor=#FFFFFF;" parent="13" vertex="1">
                    <mxGeometry x="60" y="282.5" width="100" height="30" as="geometry"/>
                </mxCell>
                <mxCell id="WvAcBhJ2Lkr34zQpsieE-130" style="html=1;strokeWidth=2;fontSize=14;fontColor=#000000;entryX=0.212;entryY=0.017;entryDx=0;entryDy=0;exitX=0.461;exitY=1.003;exitDx=0;exitDy=0;exitPerimeter=0;entryPerimeter=0;" parent="13" source="WvAcBhJ2Lkr34zQpsieE-80" target="WvAcBhJ2Lkr34zQpsieE-75" edge="1">
                    <mxGeometry relative="1" as="geometry">
                        <mxPoint x="38.649999999999864" y="179.4999999999999" as="sourcePoint"/>
                        <mxPoint x="39" y="209.5" as="targetPoint"/>
                    </mxGeometry>
                </mxCell>
                <mxCell id="WvAcBhJ2Lkr34zQpsieE-131" value="&lt;span style=&quot;font-size: 8px;&quot;&gt;RPC&lt;/span&gt;&lt;br style=&quot;border-color: var(--border-color); font-size: 8px;&quot;&gt;&lt;span style=&quot;font-size: 8px;&quot;&gt;Requests&lt;/span&gt;" style="edgeLabel;html=1;align=center;verticalAlign=middle;resizable=0;points=[];fontSize=8;fontColor=#000000;" parent="WvAcBhJ2Lkr34zQpsieE-130" vertex="1" connectable="0">
                    <mxGeometry x="-0.2693" y="1" relative="1" as="geometry">
                        <mxPoint x="-28" y="4" as="offset"/>
                    </mxGeometry>
                </mxCell>
                <mxCell id="WvAcBhJ2Lkr34zQpsieE-132" value="" style="endArrow=classic;html=1;strokeWidth=2;fontSize=12;fontColor=#000000;dashed=1;entryX=0.561;entryY=1.028;entryDx=0;entryDy=0;exitX=0.327;exitY=0.024;exitDx=0;exitDy=0;exitPerimeter=0;entryPerimeter=0;" parent="13" source="WvAcBhJ2Lkr34zQpsieE-75" target="WvAcBhJ2Lkr34zQpsieE-80" edge="1">
                    <mxGeometry width="50" height="50" relative="1" as="geometry">
                        <mxPoint x="61.049999999999955" y="208.69000000000017" as="sourcePoint"/>
                        <mxPoint x="61.049999999999955" y="178.9000000000002" as="targetPoint"/>
                    </mxGeometry>
                </mxCell>
                <mxCell id="3" style="html=1;strokeWidth=2;fontSize=14;fontColor=#000000;exitX=0.25;exitY=1;exitDx=0;exitDy=0;entryX=0.463;entryY=-0.017;entryDx=0;entryDy=0;entryPerimeter=0;" parent="13" source="WvAcBhJ2Lkr34zQpsieE-67" target="WvAcBhJ2Lkr34zQpsieE-70" edge="1">
                    <mxGeometry relative="1" as="geometry">
                        <mxPoint x="90.00000000000011" y="67.49999999999989" as="sourcePoint"/>
                        <mxPoint x="90.00000000000011" y="97.49999999999989" as="targetPoint"/>
                    </mxGeometry>
                </mxCell>
                <mxCell id="4" value="&lt;span style=&quot;font-size: 8px;&quot;&gt;RPC&lt;/span&gt;&lt;br style=&quot;border-color: var(--border-color); font-size: 8px;&quot;&gt;&lt;span style=&quot;font-size: 8px;&quot;&gt;Requests&lt;/span&gt;" style="edgeLabel;html=1;align=center;verticalAlign=middle;resizable=0;points=[];fontSize=8;fontColor=#000000;" parent="3" vertex="1" connectable="0">
                    <mxGeometry x="-0.2693" y="1" relative="1" as="geometry">
                        <mxPoint x="-32" y="4" as="offset"/>
                    </mxGeometry>
                </mxCell>
                <mxCell id="5" value="" style="endArrow=classic;html=1;strokeWidth=2;fontSize=12;fontColor=#000000;dashed=1;entryX=0.355;entryY=1.005;entryDx=0;entryDy=0;entryPerimeter=0;exitX=0.574;exitY=-0.012;exitDx=0;exitDy=0;exitPerimeter=0;" parent="13" source="WvAcBhJ2Lkr34zQpsieE-70" target="WvAcBhJ2Lkr34zQpsieE-67" edge="1">
                    <mxGeometry width="50" height="50" relative="1" as="geometry">
                        <mxPoint x="120" y="107.50000000000017" as="sourcePoint"/>
                        <mxPoint x="120" y="77.7100000000002" as="targetPoint"/>
                    </mxGeometry>
                </mxCell>
                <mxCell id="6" style="html=1;strokeWidth=2;fontSize=14;fontColor=#000000;exitX=0.616;exitY=0.993;exitDx=0;exitDy=0;exitPerimeter=0;entryX=0.471;entryY=-0.008;entryDx=0;entryDy=0;entryPerimeter=0;" parent="13" source="WvAcBhJ2Lkr34zQpsieE-67" target="WvAcBhJ2Lkr34zQpsieE-74" edge="1">
                    <mxGeometry relative="1" as="geometry">
                        <mxPoint x="174.30999999999995" y="61.099999999999994" as="sourcePoint"/>
                        <mxPoint x="129.30999999999995" y="120" as="targetPoint"/>
                    </mxGeometry>
                </mxCell>
                <mxCell id="7" value="&lt;span style=&quot;font-size: 8px;&quot;&gt;RPC&lt;/span&gt;&lt;br style=&quot;border-color: var(--border-color); font-size: 8px;&quot;&gt;&lt;span style=&quot;font-size: 8px;&quot;&gt;Requests&lt;/span&gt;" style="edgeLabel;html=1;align=center;verticalAlign=middle;resizable=0;points=[];fontSize=8;fontColor=#000000;" parent="6" vertex="1" connectable="0">
                    <mxGeometry x="-0.2693" y="1" relative="1" as="geometry">
                        <mxPoint x="41" y="-3" as="offset"/>
                    </mxGeometry>
                </mxCell>
                <mxCell id="8" value="" style="endArrow=classic;html=1;strokeWidth=2;fontSize=12;fontColor=#000000;dashed=1;entryX=0.725;entryY=1.021;entryDx=0;entryDy=0;entryPerimeter=0;exitX=0.588;exitY=-0.024;exitDx=0;exitDy=0;exitPerimeter=0;" parent="13" source="WvAcBhJ2Lkr34zQpsieE-74" target="WvAcBhJ2Lkr34zQpsieE-67" edge="1">
                    <mxGeometry width="50" height="50" relative="1" as="geometry">
                        <mxPoint x="141.12102362204723" y="120" as="sourcePoint"/>
                        <mxPoint x="187.49897637795266" y="61.099999999999994" as="targetPoint"/>
                    </mxGeometry>
                </mxCell>
                <mxCell id="10" style="html=1;strokeWidth=2;fontSize=14;fontColor=#000000;entryX=0.579;entryY=-0.011;entryDx=0;entryDy=0;entryPerimeter=0;exitX=0.447;exitY=1.031;exitDx=0;exitDy=0;exitPerimeter=0;" parent="13" source="WvAcBhJ2Lkr34zQpsieE-82" target="WvAcBhJ2Lkr34zQpsieE-75" edge="1">
                    <mxGeometry relative="1" as="geometry">
                        <mxPoint x="159.9999999999999" y="180.0999999999999" as="sourcePoint"/>
                        <mxPoint x="205.7499999999999" y="252.92000000000007" as="targetPoint"/>
                    </mxGeometry>
                </mxCell>
                <mxCell id="11" value="&lt;span style=&quot;font-size: 8px;&quot;&gt;RPC&lt;/span&gt;&lt;br style=&quot;border-color: var(--border-color); font-size: 8px;&quot;&gt;&lt;span style=&quot;font-size: 8px;&quot;&gt;Requests&lt;/span&gt;" style="edgeLabel;html=1;align=center;verticalAlign=middle;resizable=0;points=[];fontSize=8;fontColor=#000000;" parent="10" vertex="1" connectable="0">
                    <mxGeometry x="-0.2693" y="1" relative="1" as="geometry">
                        <mxPoint x="32" y="11" as="offset"/>
                    </mxGeometry>
                </mxCell>
                <mxCell id="12" value="" style="endArrow=classic;html=1;strokeWidth=2;fontSize=12;fontColor=#000000;dashed=1;entryX=0.566;entryY=1.052;entryDx=0;entryDy=0;exitX=0.706;exitY=-0.01;exitDx=0;exitDy=0;entryPerimeter=0;exitPerimeter=0;" parent="13" source="WvAcBhJ2Lkr34zQpsieE-75" target="WvAcBhJ2Lkr34zQpsieE-82" edge="1">
                    <mxGeometry width="50" height="50" relative="1" as="geometry">
                        <mxPoint x="220.04999999999984" y="252.32000000000016" as="sourcePoint"/>
                        <mxPoint x="171.35000000000002" y="179.5" as="targetPoint"/>
                    </mxGeometry>
                </mxCell>
                <mxCell id="36" value="" style="group" parent="1" vertex="1" connectable="0">
                    <mxGeometry x="830" y="170" width="220" height="312.5" as="geometry"/>
                </mxCell>
                <mxCell id="37" value="Worker Process" style="rounded=1;whiteSpace=wrap;html=1;shadow=0;glass=0;sketch=0;strokeColor=#000000;fontSize=12;fontColor=#000000;fillColor=#FFFFFF;arcSize=0;" parent="36" vertex="1">
                    <mxGeometry x="60" width="100" height="30" as="geometry"/>
                </mxCell>
                <mxCell id="38" value="Model 1 Replica" style="rounded=0;whiteSpace=wrap;html=1;shadow=0;glass=0;sketch=0;strokeColor=default;fontSize=12;fillColor=#FF5C4A;fontColor=#FFFFFF;" parent="36" vertex="1">
                    <mxGeometry x="60" y="30" width="100" height="30" as="geometry"/>
                </mxCell>
                <mxCell id="39" value="Worker Process" style="rounded=1;whiteSpace=wrap;html=1;shadow=0;glass=0;sketch=0;strokeColor=#000000;fontSize=12;fontColor=#000000;fillColor=#FFFFFF;arcSize=0;" parent="36" vertex="1">
                    <mxGeometry y="118.89999999999998" width="100" height="30" as="geometry"/>
                </mxCell>
                <mxCell id="40" value="Worker Process" style="rounded=1;whiteSpace=wrap;html=1;shadow=0;glass=0;sketch=0;strokeColor=#000000;fontSize=12;fontColor=#000000;fillColor=#FFFFFF;arcSize=0;" parent="36" vertex="1">
                    <mxGeometry x="120" y="118.89999999999998" width="100" height="30" as="geometry"/>
                </mxCell>
                <mxCell id="41" value="Worker Process" style="rounded=1;whiteSpace=wrap;html=1;shadow=0;glass=0;sketch=0;strokeColor=#000000;fontSize=12;fontColor=#000000;fillColor=#FFFFFF;arcSize=0;" parent="36" vertex="1">
                    <mxGeometry x="60" y="252.5" width="100" height="30" as="geometry"/>
                </mxCell>
                <mxCell id="42" value="Model 2 Replica" style="rounded=0;whiteSpace=wrap;html=1;shadow=0;glass=0;sketch=0;strokeColor=default;fontSize=12;fillColor=#FF9E66;fontColor=#FFFFFF;" parent="36" vertex="1">
                    <mxGeometry y="148.89999999999998" width="100" height="30" as="geometry"/>
                </mxCell>
                <mxCell id="43" value="Model 3 Replica" style="rounded=0;whiteSpace=wrap;html=1;shadow=0;glass=0;sketch=0;strokeColor=default;fontSize=12;fillColor=#8A9DFF;fontColor=#FFFFFF;" parent="36" vertex="1">
                    <mxGeometry x="120" y="148.89999999999998" width="100" height="30" as="geometry"/>
                </mxCell>
                <mxCell id="44" value="Model 4 Replica" style="rounded=0;whiteSpace=wrap;html=1;shadow=0;glass=0;sketch=0;strokeColor=default;fontSize=12;fillColor=#6933FF;fontColor=#FFFFFF;" parent="36" vertex="1">
                    <mxGeometry x="60" y="282.5" width="100" height="30" as="geometry"/>
                </mxCell>
                <mxCell id="45" style="html=1;strokeWidth=2;fontSize=14;fontColor=#000000;entryX=0.212;entryY=0.017;entryDx=0;entryDy=0;exitX=0.461;exitY=1.003;exitDx=0;exitDy=0;exitPerimeter=0;entryPerimeter=0;" parent="36" source="42" target="41" edge="1">
                    <mxGeometry relative="1" as="geometry">
                        <mxPoint x="38.649999999999864" y="179.4999999999999" as="sourcePoint"/>
                        <mxPoint x="39" y="209.5" as="targetPoint"/>
                    </mxGeometry>
                </mxCell>
                <mxCell id="46" value="&lt;span style=&quot;font-size: 8px;&quot;&gt;RPC&lt;/span&gt;&lt;br style=&quot;border-color: var(--border-color); font-size: 8px;&quot;&gt;&lt;span style=&quot;font-size: 8px;&quot;&gt;Requests&lt;/span&gt;" style="edgeLabel;html=1;align=center;verticalAlign=middle;resizable=0;points=[];fontSize=8;fontColor=#000000;" parent="45" vertex="1" connectable="0">
                    <mxGeometry x="-0.2693" y="1" relative="1" as="geometry">
                        <mxPoint x="-28" y="4" as="offset"/>
                    </mxGeometry>
                </mxCell>
                <mxCell id="47" value="" style="endArrow=classic;html=1;strokeWidth=2;fontSize=12;fontColor=#000000;dashed=1;entryX=0.561;entryY=1.028;entryDx=0;entryDy=0;exitX=0.327;exitY=0.024;exitDx=0;exitDy=0;exitPerimeter=0;entryPerimeter=0;" parent="36" source="41" target="42" edge="1">
                    <mxGeometry width="50" height="50" relative="1" as="geometry">
                        <mxPoint x="61.049999999999955" y="208.69000000000017" as="sourcePoint"/>
                        <mxPoint x="61.049999999999955" y="178.9000000000002" as="targetPoint"/>
                    </mxGeometry>
                </mxCell>
                <mxCell id="48" style="html=1;strokeWidth=2;fontSize=14;fontColor=#000000;exitX=0.25;exitY=1;exitDx=0;exitDy=0;entryX=0.463;entryY=-0.017;entryDx=0;entryDy=0;entryPerimeter=0;" parent="36" source="38" target="39" edge="1">
                    <mxGeometry relative="1" as="geometry">
                        <mxPoint x="90.00000000000011" y="67.49999999999989" as="sourcePoint"/>
                        <mxPoint x="90.00000000000011" y="97.49999999999989" as="targetPoint"/>
                    </mxGeometry>
                </mxCell>
                <mxCell id="49" value="&lt;span style=&quot;font-size: 8px;&quot;&gt;RPC&lt;/span&gt;&lt;br style=&quot;border-color: var(--border-color); font-size: 8px;&quot;&gt;&lt;span style=&quot;font-size: 8px;&quot;&gt;Requests&lt;/span&gt;" style="edgeLabel;html=1;align=center;verticalAlign=middle;resizable=0;points=[];fontSize=8;fontColor=#000000;" parent="48" vertex="1" connectable="0">
                    <mxGeometry x="-0.2693" y="1" relative="1" as="geometry">
                        <mxPoint x="-32" y="4" as="offset"/>
                    </mxGeometry>
                </mxCell>
                <mxCell id="50" value="" style="endArrow=classic;html=1;strokeWidth=2;fontSize=12;fontColor=#000000;dashed=1;entryX=0.355;entryY=1.005;entryDx=0;entryDy=0;entryPerimeter=0;exitX=0.574;exitY=-0.012;exitDx=0;exitDy=0;exitPerimeter=0;" parent="36" source="39" target="38" edge="1">
                    <mxGeometry width="50" height="50" relative="1" as="geometry">
                        <mxPoint x="120" y="107.50000000000017" as="sourcePoint"/>
                        <mxPoint x="120" y="77.7100000000002" as="targetPoint"/>
                    </mxGeometry>
                </mxCell>
                <mxCell id="51" style="html=1;strokeWidth=2;fontSize=14;fontColor=#000000;exitX=0.616;exitY=0.993;exitDx=0;exitDy=0;exitPerimeter=0;entryX=0.471;entryY=-0.008;entryDx=0;entryDy=0;entryPerimeter=0;" parent="36" source="38" target="40" edge="1">
                    <mxGeometry relative="1" as="geometry">
                        <mxPoint x="174.30999999999995" y="61.099999999999994" as="sourcePoint"/>
                        <mxPoint x="129.30999999999995" y="120" as="targetPoint"/>
                    </mxGeometry>
                </mxCell>
                <mxCell id="52" value="&lt;span style=&quot;font-size: 8px;&quot;&gt;RPC&lt;/span&gt;&lt;br style=&quot;border-color: var(--border-color); font-size: 8px;&quot;&gt;&lt;span style=&quot;font-size: 8px;&quot;&gt;Requests&lt;/span&gt;" style="edgeLabel;html=1;align=center;verticalAlign=middle;resizable=0;points=[];fontSize=8;fontColor=#000000;" parent="51" vertex="1" connectable="0">
                    <mxGeometry x="-0.2693" y="1" relative="1" as="geometry">
                        <mxPoint x="41" y="-3" as="offset"/>
                    </mxGeometry>
                </mxCell>
                <mxCell id="53" value="" style="endArrow=classic;html=1;strokeWidth=2;fontSize=12;fontColor=#000000;dashed=1;entryX=0.725;entryY=1.021;entryDx=0;entryDy=0;entryPerimeter=0;exitX=0.588;exitY=-0.024;exitDx=0;exitDy=0;exitPerimeter=0;" parent="36" source="40" target="38" edge="1">
                    <mxGeometry width="50" height="50" relative="1" as="geometry">
                        <mxPoint x="141.12102362204723" y="120" as="sourcePoint"/>
                        <mxPoint x="187.49897637795266" y="61.099999999999994" as="targetPoint"/>
                    </mxGeometry>
                </mxCell>
                <mxCell id="54" style="html=1;strokeWidth=2;fontSize=14;fontColor=#000000;entryX=0.579;entryY=-0.011;entryDx=0;entryDy=0;entryPerimeter=0;exitX=0.447;exitY=1.031;exitDx=0;exitDy=0;exitPerimeter=0;" parent="36" source="43" target="41" edge="1">
                    <mxGeometry relative="1" as="geometry">
                        <mxPoint x="159.9999999999999" y="180.0999999999999" as="sourcePoint"/>
                        <mxPoint x="205.7499999999999" y="252.92000000000007" as="targetPoint"/>
                    </mxGeometry>
                </mxCell>
                <mxCell id="55" value="&lt;span style=&quot;font-size: 8px;&quot;&gt;RPC&lt;/span&gt;&lt;br style=&quot;border-color: var(--border-color); font-size: 8px;&quot;&gt;&lt;span style=&quot;font-size: 8px;&quot;&gt;Requests&lt;/span&gt;" style="edgeLabel;html=1;align=center;verticalAlign=middle;resizable=0;points=[];fontSize=8;fontColor=#000000;" parent="54" vertex="1" connectable="0">
                    <mxGeometry x="-0.2693" y="1" relative="1" as="geometry">
                        <mxPoint x="32" y="11" as="offset"/>
                    </mxGeometry>
                </mxCell>
                <mxCell id="56" value="" style="endArrow=classic;html=1;strokeWidth=2;fontSize=12;fontColor=#000000;dashed=1;entryX=0.566;entryY=1.052;entryDx=0;entryDy=0;exitX=0.706;exitY=-0.01;exitDx=0;exitDy=0;entryPerimeter=0;exitPerimeter=0;" parent="36" source="41" target="43" edge="1">
                    <mxGeometry width="50" height="50" relative="1" as="geometry">
                        <mxPoint x="220.04999999999984" y="252.32000000000016" as="sourcePoint"/>
                        <mxPoint x="171.35000000000002" y="179.5" as="targetPoint"/>
                    </mxGeometry>
                </mxCell>
                <mxCell id="57" value="Embedded Serving Approach" style="text;html=1;strokeColor=none;fillColor=none;align=center;verticalAlign=middle;whiteSpace=wrap;rounded=0;" vertex="1" parent="1">
                    <mxGeometry x="109.5" y="520" width="190" height="30" as="geometry"/>
                </mxCell>
                <mxCell id="58" value="External Serving Approach" style="text;html=1;strokeColor=none;fillColor=none;align=center;verticalAlign=middle;whiteSpace=wrap;rounded=0;" vertex="1" parent="1">
                    <mxGeometry x="580" y="520" width="190" height="30" as="geometry"/>
                </mxCell>
            </root>
        </mxGraphModel>
    </diagram>
</mxfile>